<?xml version="1.0" encoding="UTF-8"?>
<svg version="1.1" xmlns="http://www.w3.org/2000/svg" width="2048" height="2048">
<path d="M0 0 C675.84 0 1351.68 0 2048 0 C2048 675.84 2048 1351.68 2048 2048 C1372.16 2048 696.32 2048 0 2048 C0 1372.16 0 696.32 0 0 Z " fill="#FEFEFE" transform="translate(0,0)"/>
<path d="M0 0 C675.84 0 1351.68 0 2048 0 C2048 675.84 2048 1351.68 2048 2048 C1372.16 2048 696.32 2048 0 2048 C0 1372.16 0 696.32 0 0 Z M38 37 C38 687.76 38 1338.52 38 2009 C494.39 2009.99 494.39 2009.99 960 2011 C1154.04 2011.495 1154.04 2011.495 1352 2012 C1461.8781843 2012.05853551 1571.7558808 2012.10534543 1681.6340034 2012.0701282 C1705.51234958 2012.06252258 1729.39069586 2012.05825387 1753.26904297 2012.05493164 C1754.20804378 2012.05480011 1755.14704459 2012.05466859 1756.11449997 2012.05453308 C1765.56014317 2012.05321247 1775.00578638 2012.05193697 1784.45142959 2012.05069422 C1803.62541599 2012.0481705 1822.79940234 2012.04534938 1841.97338867 2012.04234314 C1842.85141016 2012.04220585 1843.72943166 2012.04206856 1844.63405986 2012.04192711 C1901.42270777 2012.03301392 1958.21135406 2012.0171955 2015 2012 C2015.13584903 1906.06367767 2015.26532185 1800.12734791 2015.49321836 1600.40911363 C2015.49847821 1595.72743768 2015.50374747 1591.04576173 2015.50902146 1586.36408579 C2015.58957959 1514.84336444 2015.66750042 1443.32264053 2015.77734375 1331.53125 C2015.77802135 1330.82661273 2015.77869896 1330.12197546 2015.77939709 1329.39598554 C2015.84881881 1257.15990909 2015.91232395 1184.92382655 2016.06640625 760.34375 C2016.06645826 759.60732006 2016.06651028 758.87089012 2016.06656387 758.11214412 C2016.07160533 686.20850615 2016.07144056 614.3048683 2016.06299336 489.26304472 C2016.06260713 484.28297635 2016.06222948 479.30290798 2016.06185675 474.32283962 C2016.05542277 388.40325949 2016.04740415 302.48367939 2016 36 C1980.52555342 35.99447951 1945.0511068 35.98921111 1909.57666016 35.98413086 C1908.87994201 35.98403106 1908.18322386 35.98393126 1907.46539305 35.98382844 C1831.46418271 35.97294893 1755.46297236 35.96378231 1679.46176147 35.95765686 C1677.73640772 35.95751741 1676.01105396 35.95737796 1674.2857002 35.95723851 C1637.91885658 35.95430386 1601.55201294 35.95158855 1565.18516928 35.94912032 C1546.86553569 35.94787673 1528.54590211 35.94659184 1510.22626852 35.94526756 C1507.46607324 35.94506827 1504.70587795 35.94487017 1501.94568266 35.94467212 C1454.2845812 35.94124059 1406.6234804 35.93617688 1358.96237946 35.92834091 C918.64004777 35.85729808 478.32258401 36.36916535 38 37 Z " fill="#443B3C" transform="translate(0,0)"/>
<path d="M0 0 C6.34672469 5.44623442 10.82988619 11.35126894 14.86328125 18.64453125 C15.46076172 19.64226563 15.46076172 19.64226563 16.0703125 20.66015625 C24.16945588 35.09907853 23.78812662 54.74845796 19.8359375 70.41015625 C13.57362004 91.23424805 0.83736465 109.28564397 -18.3359375 120.19921875 C-37.0071017 129.83426862 -56.09329316 133.0196683 -76.484375 126.90234375 C-93.19965238 121.1458525 -106.50491786 110.4910997 -114.44921875 94.64453125 C-122.74304598 77.51713546 -125.19056052 58.76900079 -119.5234375 40.3359375 C-111.06837001 17.82878603 -96.45468012 1.57528141 -74.44921875 -8.66796875 C-49.52239766 -18.98566393 -21.63118875 -16.24359504 0 0 Z " fill="#FDFDFD" transform="translate(978.13671875,986.35546875)"/>
<path d="M0 0 C10.46931272 9.72150467 14.56919651 21.03389931 15.28076172 35.20843506 C15.39943216 39.03240427 15.41818196 42.85537058 15.41069031 46.68098068 C15.40613324 49.21331806 15.42042571 51.74498522 15.43908691 54.2772522 C15.48165619 60.55443098 15.49311759 66.83158886 15.50531006 73.10888672 C15.51687547 78.44471461 15.54050768 83.78022837 15.58000183 89.11592484 C15.59347377 91.59755322 15.58942262 94.07874435 15.58459473 96.56039429 C15.59393957 98.09153794 15.60410945 99.62267684 15.61523438 101.15380859 C15.60908615 101.83240936 15.60293793 102.51101013 15.59660339 103.21017456 C15.66280054 108.43215 16.91382914 112.28301406 19 117 C22.41492953 119.68774203 26.46118601 119.36285228 30.66015625 119.55859375 C33.422965 120.07979139 34.3845053 120.71898588 36 123 C35.56521739 128.43478261 35.56521739 128.43478261 34 130 C31.39252056 130.30434604 28.80339197 130.54922859 26.1875 130.75390625 C25.38578369 130.81907944 24.58406738 130.88425262 23.75805664 130.95140076 C22.04657315 131.08899868 20.33489397 131.22417989 18.62304688 131.35717773 C16.06566338 131.55736012 13.50945901 131.76931115 10.953125 131.98242188 C2.73724273 132.6448803 -5.44259444 133.13118634 -13.6875 133.15234375 C-14.41267822 133.15528946 -15.13785645 133.15823517 -15.88500977 133.16127014 C-20.87130437 133.12869563 -20.87130437 133.12869563 -22 132 C-22.04080783 130.00041636 -22.04254356 127.99954746 -22 126 C-20.64611467 125.39520315 -19.29187368 124.79120246 -17.9375 124.1875 C-17.11894531 123.81882812 -16.30039063 123.45015625 -15.45703125 123.0703125 C-13.97048311 122.42275417 -12.47016691 121.80421406 -10.94921875 121.2421875 C-7.94484571 120.12278513 -6.16150516 119.19918969 -4.125 116.6875 C-1.92649751 111.43552183 -1.84519619 106.04828728 -1.82299805 100.42504883 C-1.81314125 99.32370102 -1.81314125 99.32370102 -1.80308533 98.20010376 C-1.7834801 95.78574496 -1.77171774 93.37144802 -1.76171875 90.95703125 C-1.75764322 90.12675604 -1.7535677 89.29648083 -1.74936867 88.44104576 C-1.72856119 84.0452538 -1.71423719 79.64949255 -1.70483398 75.25366211 C-1.69378725 70.73929552 -1.65939222 66.22542419 -1.61966228 61.71123219 C-1.59338138 58.21682385 -1.58513198 54.72253151 -1.58155251 51.22803307 C-1.5767153 49.56522977 -1.56518426 47.90243063 -1.54651451 46.23972511 C-1.43135672 35.30340859 -2.22261727 26.18117174 -8.0625 16.625 C-14.70326697 10.6906976 -22.01592783 8.14947317 -30.89453125 8.5859375 C-44.30482708 10.37397694 -55.17703907 16.2425394 -64.1484375 26.30078125 C-71.01385337 36.30922506 -71.72096606 44.75577952 -71.59375 56.57421875 C-71.59203572 58.26951512 -71.5921078 59.96481415 -71.59387207 61.66011047 C-71.5922266 65.19627578 -71.57366715 68.73180114 -71.54199219 72.26782227 C-71.50222542 76.78695903 -71.49796242 81.30526337 -71.50545502 85.82454205 C-71.50853178 89.31884814 -71.49638063 92.8129691 -71.47932434 96.30723 C-71.4723249 97.97329357 -71.46916608 99.6393781 -71.47001648 101.30545616 C-71.46820768 103.63590474 -71.4467382 105.96537603 -71.41992188 108.2956543 C-71.42285248 108.97478378 -71.42578308 109.65391327 -71.42880249 110.35362244 C-71.34152083 115.29886042 -70.24102241 118.67505748 -68 123 C-65.61632194 124.47227174 -63.46424117 124.90103698 -60.74609375 125.48046875 C-59.94300781 125.65191406 -59.13992188 125.82335938 -58.3125 126 C-57.54550781 126.144375 -56.77851562 126.28875 -55.98828125 126.4375 C-54 127 -54 127 -52 129 C-51.625 131.4375 -51.625 131.4375 -52 134 C-55.33229845 137.40689831 -58.45085555 137.46929321 -63.07421875 137.6953125 C-63.75748734 137.73308807 -64.44075592 137.77086365 -65.14472961 137.80978394 C-67.32520573 137.92784394 -69.50603525 138.02708129 -71.6875 138.125 C-74.54581093 138.26895522 -77.40373847 138.41995807 -80.26171875 138.5703125 C-80.94695618 138.60483521 -81.6321936 138.63935791 -82.3381958 138.67492676 C-87.25952086 138.93115992 -92.10944556 139.40932915 -97 140 C-98.78939793 140.12275553 -100.58173443 140.21517931 -102.375 140.25 C-103.59316406 140.28867188 -103.59316406 140.28867188 -104.8359375 140.328125 C-107.52500684 139.92039608 -108.40078282 139.16668134 -110 137 C-110 134.5 -110 134.5 -109 132 C-104.78268061 129.03446446 -100.46210448 127.90678279 -95.5234375 126.6484375 C-92.38281343 124.59682239 -91.69380276 122.58831801 -90.60803223 119.07092285 C-89.2243355 112.08243489 -89.55041085 104.8520148 -89.56640625 97.75390625 C-89.56183768 95.97468366 -89.5565301 94.19546282 -89.55052185 92.41624451 C-89.54161878 88.6985657 -89.54398186 84.98110204 -89.55395508 81.26342773 C-89.56544258 76.52142758 -89.54522241 71.78017237 -89.51603794 67.03827 C-89.49760965 63.36715553 -89.49798152 59.69621744 -89.50367546 56.02506828 C-89.50382786 54.27772921 -89.49785165 52.53037756 -89.48538399 50.78308296 C-89.36906605 34.56872845 -89.36906605 34.56872845 -97.5625 21.0625 C-104.08007159 15.93550491 -112.29804079 14.34631197 -120.47265625 14.65625 C-132.93048088 16.35066819 -145.28079057 24.19782929 -153 34 C-156.86020928 40.46897914 -159.12433898 45.957437 -159.12939453 53.53173828 C-159.13114685 54.19071609 -159.13289917 54.84969391 -159.13470459 55.52864075 C-159.13910818 57.70922475 -159.13618833 59.88972765 -159.1328125 62.0703125 C-159.13348645 63.59146134 -159.13445724 65.11261007 -159.13571167 66.63375854 C-159.13718702 69.82648745 -159.13504108 73.0191884 -159.13037109 76.21191406 C-159.12470295 80.28356749 -159.12793523 84.35515456 -159.13394356 88.4268055 C-159.13757844 91.57199593 -159.13639671 94.71717098 -159.13381577 97.86236191 C-159.13315306 99.36211022 -159.13395174 100.86185997 -159.13629532 102.3616066 C-159.97245378 116.74878131 -159.97245378 116.74878131 -156 130 C-153.04202744 130.9348767 -153.04202744 130.9348767 -149.625 131.125 C-145.1143031 131.54246856 -142.39816296 131.90315198 -139 135 C-139.3125 137.875 -139.3125 137.875 -140 141 C-143.57303701 143.38202468 -145.50211855 143.36520708 -149.7578125 143.59765625 C-150.42029999 143.63684677 -151.08278748 143.67603729 -151.76535034 143.71641541 C-153.88484918 143.84029273 -156.00476999 143.95191073 -158.125 144.0625 C-160.89864981 144.21641389 -163.67200194 144.37525848 -166.4453125 144.53515625 C-167.75846436 144.61032471 -169.07161621 144.68549316 -170.42456055 144.76293945 C-173.32874235 144.95549394 -176.20028452 145.20680149 -179.08984375 145.546875 C-182.56968111 145.95013288 -185.93724274 146.1647415 -189.4375 146.1875 C-190.44683594 146.20167969 -191.45617188 146.21585938 -192.49609375 146.23046875 C-195 146 -195 146 -197 144 C-197.34777365 141.28736552 -197.51455663 139.69307628 -195.8515625 137.453125 C-193.40212862 135.53078449 -191.05977848 134.99887699 -188.0625 134.1875 C-184.03712993 132.90404867 -182.27964155 132.29264813 -179.3125 129.1875 C-176.83114523 123.16135271 -176.84830729 116.91771015 -176.83886719 110.49780273 C-176.83390228 109.67736481 -176.82893738 108.85692688 -176.82382202 108.0116272 C-176.80930992 105.31894064 -176.80241909 102.62631286 -176.796875 99.93359375 C-176.79404762 99.00973436 -176.79122025 98.08587498 -176.78830719 97.13401985 C-176.77336388 92.25120893 -176.76410201 87.36842721 -176.75976562 82.4855957 C-176.75426826 77.44960428 -176.7301998 72.41388149 -176.70179367 67.37797451 C-176.68315868 63.49602983 -176.67796137 59.61415001 -176.67642975 55.73216438 C-176.6734079 53.87545353 -176.66539519 52.01874369 -176.65224457 50.16207695 C-176.63515556 47.56544372 -176.63707045 44.96946966 -176.64355469 42.37280273 C-176.6343399 41.61055893 -176.62512512 40.84831512 -176.6156311 40.06297302 C-176.65279829 35.30234644 -177.42773577 32.01883877 -180 28 C-183.40431947 25.73045369 -185.16524202 25.63450051 -189.1875 25.375 C-190.27417969 25.30023437 -191.36085938 25.22546875 -192.48046875 25.1484375 C-193.31191406 25.09945312 -194.14335938 25.05046875 -195 25 C-195.33 23.02 -195.66 21.04 -196 19 C-192.63457869 16.138133 -189.19079605 14.8243314 -185.0625 13.3125 C-178.33685458 10.78036596 -172.63113815 7.48768304 -166.70703125 3.44140625 C-164 2 -164 2 -160 3 C-160 9.6 -160 16.2 -160 23 C-155.62072358 21.24828943 -154.19569396 20.50865052 -151.0625 17.4375 C-137.54631944 5.09077266 -122.76364089 -1.50246283 -104.27734375 -1.26953125 C-94.87093962 -0.4959414 -88.3395622 4.27357475 -82 11 C-80.16852726 13.27222436 -78.58640042 15.54363806 -77 18 C-71.35651918 17.6127023 -68.90407994 16.55423686 -65 12.5 C-48.41769843 -3.39896497 -20.55383809 -15.88251125 0 0 Z " fill="#443C3D" transform="translate(1701,975)"/>
<path d="M0 0 C1.16462769 -0.01377686 1.16462769 -0.01377686 2.3527832 -0.02783203 C7.56456921 0.00206921 7.56456921 0.00206921 9.8125 2.25 C9.61086601 4.87124191 9.24788237 6.65078036 7.69140625 8.79296875 C4.15633755 11.53430061 -0.45713042 11.98233328 -4.7421875 12.9921875 C-11.73495823 15.5451038 -14.38904193 20.77958324 -17.45507812 27.19775391 C-21.13908262 35.56771929 -24.08464414 44.26053676 -27.16085815 52.86630249 C-28.45808577 56.49508533 -29.76403837 60.1206187 -31.07250977 63.74536133 C-32.42626508 67.49583704 -33.77984627 71.24637014 -35.13014221 74.99809265 C-39.36751942 86.76989772 -43.65250686 98.52398575 -47.9630127 110.26919556 C-49.09864362 113.36563601 -50.23059093 116.46340544 -51.36230469 119.5612793 C-53.00217144 124.04286504 -54.66248194 128.51627503 -56.3414917 132.9833374 C-57.11662498 135.06010854 -57.87038186 137.14349573 -58.62158203 139.22900391 C-59.24395752 140.87328369 -59.24395752 140.87328369 -59.87890625 142.55078125 C-60.21220947 143.45610596 -60.5455127 144.36143066 -60.88891602 145.29418945 C-62.1875 147.25 -62.1875 147.25 -64.83178711 148.04370117 C-65.60917236 148.11177979 -66.38655762 148.1798584 -67.1875 148.25 C-70.83502433 141.29045475 -73.76578771 134.10022469 -76.6875 126.8125 C-77.82786822 123.98114132 -78.97055812 121.15072144 -80.11328125 118.3203125 C-80.42320511 117.55180466 -80.73312897 116.78329681 -81.05244446 115.99150085 C-83.81579306 109.14803679 -86.61475185 102.31940133 -89.41796875 95.4921875 C-90.32819031 93.27273186 -91.2383464 91.05324937 -92.1484375 88.83374023 C-93.50704703 85.52046037 -94.86671017 82.20763588 -96.22998047 78.89627075 C-97.51477716 75.77467163 -98.79493236 72.65120435 -100.07421875 69.52734375 C-100.46014694 68.59312592 -100.84607513 67.65890808 -101.24369812 66.69638062 C-103.19152702 61.92770616 -104.8910625 57.23678966 -106.1875 52.25 C-106.8475 52.25 -107.5075 52.25 -108.1875 52.25 C-108.31341522 52.96781143 -108.43933044 53.68562286 -108.56906128 54.42518616 C-109.18600133 57.2431546 -110.04170283 59.75868003 -111.08251953 62.44702148 C-111.47498871 63.46642822 -111.86745789 64.48583496 -112.27182007 65.53613281 C-112.70032257 66.63666992 -113.12882507 67.73720703 -113.5703125 68.87109375 C-114.01710358 70.02778564 -114.46389465 71.18447754 -114.92422485 72.3762207 C-116.13297467 75.50241201 -117.34539885 78.62712314 -118.5599823 81.75104904 C-119.56301599 84.33215184 -120.56354394 86.91422301 -121.56416321 89.49626255 C-124.30218209 96.56081705 -127.04839043 103.6221636 -129.79821777 110.68212891 C-131.08854921 113.99588054 -132.37708824 117.31032254 -133.66503906 120.625 C-135.43149235 125.16893378 -137.20392524 129.71047624 -138.98284912 134.24954224 C-139.61715549 135.86941414 -140.24985743 137.48991526 -140.88092041 139.11105347 C-141.74355272 141.32481228 -142.61286845 143.53581639 -143.484375 145.74609375 C-143.96229492 146.96482178 -144.44021484 148.1835498 -144.93261719 149.43920898 C-146.1875 152.25 -146.1875 152.25 -148.1875 154.25 C-150.15885925 154.14749146 -150.15885925 154.14749146 -152.1875 153.25 C-153.50776672 151.3600769 -153.50776672 151.3600769 -154.64575195 148.89013672 C-155.06837311 147.98084412 -155.49099426 147.07155151 -155.92642212 146.13470459 C-157.9733814 141.4523032 -159.94799302 136.7487947 -161.85546875 132.0078125 C-162.28826141 130.94168732 -162.72105408 129.87556213 -163.16696167 128.77713013 C-164.09322187 126.4941014 -165.0176744 124.21033858 -165.94046021 121.92590332 C-167.39256801 118.33151406 -168.84975142 114.7392209 -170.30834961 111.14746094 C-172.30006521 106.24190852 -174.2900965 101.33567964 -176.27832031 96.42871094 C-180.21033183 86.72501117 -184.14650858 77.02304144 -188.0987854 67.32757568 C-189.22358452 64.56488083 -190.3436835 61.80031213 -191.46362305 59.03564453 C-196.99948877 42.09604597 -196.99948877 42.09604597 -207.8984375 29.359375 C-212.82460251 27.37333219 -217.98884468 26.27288357 -223.1875 25.25 C-223.875 21.9375 -223.875 21.9375 -224.1875 18.25 C-222.64185812 16.04785868 -221.63915834 15.35553902 -219.01220703 14.74169922 C-217.74159424 14.64912842 -217.74159424 14.64912842 -216.4453125 14.5546875 C-215.47464844 14.47903564 -214.50398437 14.40338379 -213.50390625 14.32543945 C-212.45074219 14.25929443 -211.39757812 14.19314941 -210.3125 14.125 C-209.22582031 14.04789795 -208.13914062 13.9707959 -207.01953125 13.89135742 C-198.08282767 13.29233008 -189.1373918 12.89760604 -180.1875 12.5625 C-178.91148926 12.51399902 -177.63547852 12.46549805 -176.32080078 12.41552734 C-174.55325439 12.35872803 -174.55325439 12.35872803 -172.75 12.30078125 C-171.69941406 12.26637939 -170.64882813 12.23197754 -169.56640625 12.1965332 C-167.1875 12.25 -167.1875 12.25 -166.1875 13.25 C-165.9375 16.6875 -165.9375 16.6875 -166.1875 20.25 C-169.34924921 22.35783281 -171.63918074 22.967194 -175.3125 23.8125 C-179.05769799 24.41664395 -179.05769799 24.41664395 -182.1875 26.25 C-181.79988356 33.13606804 -180.17621271 38.89314107 -177.73046875 45.30859375 C-177.37744186 46.2559288 -177.02441498 47.20326385 -176.66069031 48.17930603 C-172.47911324 59.30502036 -167.99623029 70.31119839 -163.5 81.3125 C-162.25145332 84.37627691 -161.0040928 87.44053141 -159.75778198 90.50521851 C-158.96433443 92.4559267 -158.16971143 94.40615727 -157.37380981 96.35586548 C-154.84478124 102.56774365 -152.42767596 108.80627053 -150.14916992 115.11499023 C-149.3835096 117.41526621 -149.3835096 117.41526621 -147.1875 118.25 C-147.02183029 117.66285721 -146.85616058 117.07571442 -146.68547058 116.47077942 C-144.72589452 109.71609782 -142.35034011 103.18860079 -139.80078125 96.63671875 C-139.38007858 95.54647903 -138.95937592 94.45623932 -138.52592468 93.33296204 C-137.18744617 89.86644449 -135.84389936 86.40191911 -134.5 82.9375 C-133.6174844 80.6557359 -132.73532019 78.37383586 -131.85351562 76.09179688 C-131.42021942 74.97112823 -130.98692322 73.85045959 -130.54049683 72.6958313 C-129.67573869 70.45685533 -128.81238493 68.21733642 -127.95046997 65.9772644 C-125.90858075 60.67464134 -123.84621003 55.38290768 -121.72412109 50.11181641 C-121.34442673 49.15459183 -120.96473236 48.19736725 -120.5735321 47.21113586 C-119.86716659 45.43136298 -119.14980872 43.65589611 -118.41926575 41.88591003 C-116.60832027 37.28255368 -115.66369063 34.16684342 -117.1875 29.25 C-119.70968945 24.91183414 -122.43783802 23.34568003 -127.02734375 21.79296875 C-129.20529769 21.24552644 -131.2646408 20.99775076 -133.5 20.8125 C-137.1875 20.25 -137.1875 20.25 -139.25 18.5 C-140.4669132 15.57940831 -140.3452233 14.18289902 -139.1875 11.25 C-136.49979989 9.59132173 -134.18553584 8.94723397 -131.0625 8.65625 C-129.88107422 8.54603516 -129.88107422 8.54603516 -128.67578125 8.43359375 C-123.67089989 8.06431679 -118.66209845 7.85279101 -113.6484375 7.64453125 C-109.58562729 7.46214503 -105.56680756 7.21007711 -101.52734375 6.73046875 C-97.59328842 6.26565297 -93.7148789 6.08421347 -89.75 6.0625 C-87.95755859 6.04123047 -87.95755859 6.04123047 -86.12890625 6.01953125 C-83.1875 6.25 -83.1875 6.25 -81.1875 8.25 C-80.8399187 10.96113417 -80.68258079 12.55768809 -82.32421875 14.80859375 C-84.85145232 16.76362349 -87.20462595 17.19351436 -90.3125 17.875 C-94.05846828 18.44026853 -94.05846828 18.44026853 -97.1875 20.25 C-97.14088824 27.06124923 -95.53616779 33.12877682 -93.125 39.4375 C-92.78919922 40.33968262 -92.45339844 41.24186523 -92.10742188 42.17138672 C-86.72706427 56.3925456 -80.79996814 70.40877328 -74.98829651 84.45730591 C-71.30992554 93.35713525 -67.72781922 102.29438988 -64.1875 111.25 C-61.73371833 108.79621833 -61.1313589 106.75023667 -59.96020508 103.48120117 C-59.30360649 101.66110786 -59.30360649 101.66110786 -58.63374329 99.804245 C-58.1579892 98.46721816 -57.68242377 97.13012419 -57.20703125 95.79296875 C-56.71142081 94.41108628 -56.21537554 93.02935969 -55.71891785 91.64778137 C-54.67394941 88.73606813 -53.63276782 85.82303844 -52.59448242 82.90893555 C-51.28653975 79.23823515 -49.97180621 75.57001807 -48.65460396 71.90263176 C-45.91193897 64.26535112 -43.19323407 56.61994392 -40.49810791 48.96575928 C-39.66653173 46.60812289 -38.83102034 44.25186787 -37.99017334 41.89752197 C-36.96257895 39.01576143 -35.95278783 36.12847906 -34.94921875 33.23828125 C-34.51643364 32.04032173 -34.51643364 32.04032173 -34.0749054 30.81816101 C-32.29973606 25.61245596 -31.57498299 20.75535838 -32.1875 15.25 C-34.58706271 12.85043729 -40.7160512 13.78424018 -43.96484375 13.62890625 C-47.1875 13.25 -47.1875 13.25 -49.1875 11.25 C-48.8125 7.625 -48.8125 7.625 -48.1875 4.25 C-40.97634488 2.11269624 -33.86116318 1.59759535 -26.375 1.125 C-25.0964917 1.0415332 -23.8179834 0.95806641 -22.50073242 0.87207031 C-15.00204741 0.4100906 -7.51343821 0.049054 0 0 Z " fill="#443C3D" transform="translate(834.1875,966.75)"/>
<path d="M0 0 C0.89195068 -0.00467285 1.78390137 -0.0093457 2.70288086 -0.01416016 C9.06446553 0.00196553 9.06446553 0.00196553 10.1875 1.125 C10.5 4 10.5 4 10.1875 7.125 C7.09219809 10.19039561 3.94527251 10.81019563 -0.25 11.625 C-4.68618559 12.48859117 -8.25857891 13.24772598 -11.8125 16.125 C-15.02375768 21.99680296 -15.23940181 27.01588959 -15.19726562 33.62402344 C-15.2026384 34.65766525 -15.20801117 35.69130707 -15.21354675 36.75627136 C-15.22330504 38.99440395 -15.22627482 41.23257428 -15.22319031 43.47072601 C-15.21869183 47.03040881 -15.23277536 50.58959969 -15.25158691 54.14923096 C-15.28832757 61.72447924 -15.30204796 69.29967581 -15.3125 76.875 C-15.32463863 85.61913647 -15.34658157 94.36303346 -15.39250183 103.10706329 C-15.4059054 106.58252318 -15.40192941 110.05766726 -15.39709473 113.53314209 C-15.43690681 129.57041805 -16.00294133 145.95853902 -22 161.0625 C-22.29970703 161.84334961 -22.59941406 162.62419922 -22.90820312 163.42871094 C-29.60997169 180.15549619 -41.01834589 191.67537811 -57.5625 198.8125 C-78.92818399 206.48483837 -103.64377664 208.68190264 -124.90234375 199.83984375 C-140.5036425 191.98449136 -150.38194628 178.46211464 -155.8125 162.125 C-159.45455064 147.96982924 -159.25329671 133.7280538 -159.25390625 119.2109375 C-159.26570257 116.74092842 -159.27907223 114.2709264 -159.29393005 111.80093384 C-159.32984889 105.34955366 -159.3502439 98.89823623 -159.36547852 92.44677734 C-159.39046807 82.08828585 -159.43003117 71.72993269 -159.48737907 61.37157059 C-159.50365278 57.76707921 -159.50747893 54.16272052 -159.51039124 50.55819702 C-159.5201667 48.34917979 -159.53042984 46.14016465 -159.54125977 43.93115234 C-159.53743034 42.43804031 -159.53743034 42.43804031 -159.53352356 40.9147644 C-159.57252317 35.61748988 -159.89542779 31.09284547 -161.8125 26.125 C-164.00748771 24.67283494 -164.00748771 24.67283494 -166.75 24.25 C-167.72710938 24.03601563 -168.70421875 23.82203125 -169.7109375 23.6015625 C-173.66775332 22.99358828 -177.59765969 22.66898302 -181.59765625 22.53125 C-182.32855469 22.3971875 -183.05945312 22.263125 -183.8125 22.125 C-185.8125 19.125 -185.8125 19.125 -185.5 16.5 C-184.8125 14.125 -184.8125 14.125 -183.8125 13.125 C-181.61417004 12.8347513 -179.40744917 12.6077875 -177.19921875 12.40625 C-176.52198761 12.34367508 -175.84475647 12.28110016 -175.14700317 12.21662903 C-172.93178322 12.01404458 -170.71599274 11.81893689 -168.5 11.625 C-167.74874847 11.55807953 -166.99749695 11.49115906 -166.22348022 11.42221069 C-131.46168829 8.33315198 -131.46168829 8.33315198 -116.8125 9.125 C-115.8125 10.125 -115.8125 10.125 -115.625 13.0625 C-115.8125 16.125 -115.8125 16.125 -117.8125 18.125 C-120.88502239 18.79389841 -123.94416545 19.32862457 -127.05078125 19.8046875 C-131.85506405 20.64519821 -135.19050078 21.82751516 -138.8125 25.125 C-141.73458677 31.15698338 -142.25166016 37.16176729 -142.21655273 43.76196289 C-142.22684761 45.13988258 -142.22684761 45.13988258 -142.23735046 46.54563904 C-142.25554695 49.56313868 -142.2517854 52.5801138 -142.24609375 55.59765625 C-142.25066433 57.7244839 -142.25597249 59.85131008 -142.26197815 61.97813416 C-142.27089945 66.43738799 -142.26850354 70.89646273 -142.25854492 75.35571289 C-142.24715409 80.99982013 -142.26711882 86.64329243 -142.29646206 92.28731632 C-142.31505871 96.68643473 -142.31448401 101.08540823 -142.30882454 105.4845562 C-142.30867364 107.56083493 -142.31452052 109.63712502 -142.32711601 111.71336555 C-142.4471231 134.76910638 -141.39048667 161.70597894 -125.296875 179.83203125 C-116.03810334 188.70876622 -103.78807803 190.30380471 -91.5625 190.3125 C-90.67175781 190.32474609 -89.78101563 190.33699219 -88.86328125 190.34960938 C-73.26245995 190.38357343 -57.57987376 185.82171933 -45.78125 175.31640625 C-28.12750081 156.694798 -28.49431528 128.55529613 -28.51171875 104.62890625 C-28.50782339 102.38264386 -28.50348702 100.1363822 -28.49873352 97.89012146 C-28.49131883 93.21130977 -28.49153014 88.53257363 -28.49682617 83.85375977 C-28.50264821 77.8698254 -28.4856009 71.8861978 -28.4624815 65.90231419 C-28.44773697 61.27569281 -28.44687288 56.64914551 -28.44999123 52.02250481 C-28.44947949 49.81577886 -28.4442696 47.6090486 -28.43417931 45.40234566 C-28.42180325 42.32084283 -28.42861125 39.23994091 -28.44018555 36.15844727 C-28.43254181 35.25699982 -28.42489807 34.35555237 -28.41702271 33.42678833 C-28.46468591 27.66747876 -29.37357012 23.36853781 -31.8125 18.125 C-36.45419913 14.33835071 -42.03503518 14.69220181 -47.7890625 14.53125 C-51.07811063 14.08931072 -52.48202709 13.44988424 -54.8125 11.125 C-55.25 8.625 -55.25 8.625 -54.8125 6.125 C-53.09454486 3.75819882 -52.11504077 3.18421687 -49.21557617 2.61669922 C-47.676073 2.52412842 -47.676073 2.52412842 -46.10546875 2.4296875 C-44.40015991 2.31633057 -44.40015991 2.31633057 -42.66040039 2.20068359 C-41.45246826 2.13445801 -40.24453613 2.06823242 -39 2 C-37.76693115 1.92217285 -36.5338623 1.8443457 -35.26342773 1.76416016 C-32.83901148 1.61126182 -30.41428727 1.4631558 -27.98925781 1.3203125 C-25.52760647 1.16896597 -23.07382945 0.99587083 -20.6171875 0.78125 C-13.74058658 0.18472558 -6.89879098 0.02541883 0 0 Z " fill="#443C3D" transform="translate(1476.8125,910.875)"/>
<path d="M0 0 C8.850838 8.00887894 13.58014608 20.0344418 14.1987915 31.77151489 C14.29695154 35.5749443 14.32346685 39.37832116 14.33552551 43.18289566 C14.34389518 45.7396618 14.36447063 48.29608434 14.38806152 50.85275269 C14.44414411 57.19713018 14.47964242 63.54159118 14.51568604 69.8861084 C14.54701419 75.26287774 14.58625687 80.63947747 14.63594055 86.01610947 C14.65589694 88.52591039 14.66430333 91.03557728 14.67224121 93.54544067 C14.6852203 95.09296143 14.69874159 96.64047777 14.71289062 98.18798828 C14.71190872 98.87803955 14.71092682 99.56809082 14.70991516 100.27905273 C14.77498063 105.41403729 15.34683039 110.52024558 18.25 114.875 C20.75770547 116.48709638 23.05548259 116.65358619 26 117 C31.52988125 117.65057427 31.52988125 117.65057427 33.88671875 119.40234375 C35 121 35 121 34.8125 123.5625 C34 126 34 126 32 128 C29.5200764 128.46159162 27.12769134 128.80199054 24.625 129.0625 C23.87476563 129.14483887 23.12453125 129.22717773 22.3515625 129.31201172 C10.04566352 130.58965954 -2.31940167 131.06954952 -14.6875 131.125 C-15.41259766 131.12967285 -16.13769531 131.1343457 -16.88476562 131.13916016 C-21.87666783 131.12333217 -21.87666783 131.12333217 -23 130 C-23.1875 127.0625 -23.1875 127.0625 -23 124 C-19.91169186 120.91169186 -15.97013593 120.33490106 -11.84765625 119.09765625 C-8.10670235 117.65566991 -6.60831853 116.25043254 -4.875 112.6875 C-3.17411936 107.46336662 -2.8718101 102.41245638 -2.85473633 96.9440918 C-2.85137772 96.26516876 -2.8480191 95.58624573 -2.84455872 94.88674927 C-2.83511344 92.65755346 -2.83310879 90.42843329 -2.83203125 88.19921875 C-2.82881398 86.63751699 -2.82544956 85.07581552 -2.82194519 83.51411438 C-2.81596981 80.24516095 -2.81410363 76.97623389 -2.81469727 73.70727539 C-2.81479874 69.53813345 -2.80115418 65.36916236 -2.78392506 61.20006084 C-2.77275369 57.97509499 -2.77077964 54.75016975 -2.77130699 51.52518654 C-2.77013432 49.9891482 -2.76575297 48.45310856 -2.75797462 46.91708946 C-2.69979395 34.24055611 -2.97803756 23.74900703 -12 14 C-19.90178983 7.91980658 -27.18382671 6.27236757 -37 7 C-49.87694108 8.9413369 -63.88482143 14.93450727 -71.8984375 25.50390625 C-79.0643179 36.01873891 -79.31461351 45.77903734 -79.30078125 58.18359375 C-79.30467749 59.64893208 -79.30901404 61.1142693 -79.31376648 62.5796051 C-79.32119067 65.63814977 -79.32096497 68.69657893 -79.31567383 71.75512695 C-79.30988037 75.64955275 -79.32682545 79.54350276 -79.3500185 83.43785 C-79.36484063 86.46042077 -79.36561617 89.48287912 -79.36250877 92.50547981 C-79.36301761 93.94021612 -79.36817186 95.37495946 -79.37832069 96.80965996 C-79.59605559 108.76271023 -79.59605559 108.76271023 -76 120 C-73.11947061 122.54368384 -71.32780049 123.34269313 -67.5 123.5 C-64.66048945 123.74325296 -63.03452791 123.98315712 -60.4375 125.25 C-59 127 -59 127 -58.5625 129.5 C-59.07882818 132.45044676 -59.69989481 133.15584836 -62 135 C-63.88122559 135.47465515 -63.88122559 135.47465515 -66.02148438 135.6159668 C-66.82662476 135.67580246 -67.63176514 135.73563812 -68.46130371 135.79728699 C-69.33001099 135.84742447 -70.19871826 135.89756195 -71.09375 135.94921875 C-71.99565063 136.01156204 -72.89755127 136.07390533 -73.82678223 136.13813782 C-75.73956364 136.26789362 -77.65280417 136.3910251 -79.56640625 136.50805664 C-82.46200345 136.68517581 -85.35586157 136.88066131 -88.25 137.08007812 C-110.5609432 138.58071788 -110.5609432 138.58071788 -115 138 C-117 136 -117 136 -117.3125 133.5625 C-117 131 -117 131 -115.88671875 129.45703125 C-112.47257538 126.82043606 -108.15670924 126.28917731 -104.03125 125.2578125 C-100.37197424 123.73940168 -99.55007037 122.59239281 -98 119 C-96.80555364 114.48234476 -96.84529924 109.98165007 -96.83886719 105.34179688 C-96.83390228 104.48103043 -96.82893738 103.62026398 -96.82382202 102.7334137 C-96.80925493 99.89518425 -96.80240896 97.05701063 -96.796875 94.21875 C-96.79112086 92.24247232 -96.78536316 90.26619465 -96.77960205 88.28991699 C-96.76910885 84.15079489 -96.76325459 80.01169212 -96.75976562 75.87255859 C-96.75427193 70.56961816 -96.73021813 65.26693331 -96.70179367 59.96407318 C-96.6831735 55.88400523 -96.67796211 51.80399907 -96.67642975 47.72389221 C-96.67340337 45.76866757 -96.66537533 43.813444 -96.65224457 41.85826111 C-96.63519051 39.12470965 -96.63706226 36.39178619 -96.64355469 33.65820312 C-96.6343399 32.851819 -96.62512512 32.04543488 -96.6156311 31.21461487 C-96.65312776 26.17497586 -97.36495566 22.63504434 -101 19 C-103.160418 18.62831518 -105.32875622 18.30208609 -107.5 18 C-113.88888889 17.11111111 -113.88888889 17.11111111 -115 16 C-115.3125 13.625 -115.3125 13.625 -115 11 C-112.04719131 8.27004479 -108.95652971 7.15504783 -105.1875 5.875 C-98.92420586 3.57680373 -93.51560416 0.50495376 -87.93823242 -3.14111328 C-86.33545253 -4.16522495 -84.67090042 -5.09126468 -83 -6 C-82.01 -5.67 -81.02 -5.34 -80 -5 C-79.67 1.6 -79.34 8.2 -79 15 C-75.38519253 13.19259627 -73.08411969 11.48313489 -70.0625 8.875 C-50.4322352 -7.3356309 -22.06165973 -17.93838229 0 0 Z " fill="#443C3D" transform="translate(1145,980)"/>
<path d="M0 0 C0.763125 0.20625 1.52625 0.4125 2.3125 0.625 C2.31488835 1.22853145 2.31727671 1.83206289 2.31973743 2.45388317 C2.37888925 17.1433013 2.45444048 31.83257186 2.54821491 46.52180767 C2.5931688 53.62544458 2.63258433 60.72903139 2.65893555 67.83276367 C2.68437441 74.68634503 2.72528184 81.53969436 2.77568626 88.39313698 C2.79239039 91.00980677 2.80388251 93.62651513 2.81011391 96.24323082 C2.81971613 99.90417289 2.84773034 103.56454045 2.88012695 107.2253418 C2.87869186 108.31075256 2.87725677 109.39616333 2.8757782 110.51446533 C2.87838026 117.59295099 2.87838026 117.59295099 6.3125 123.625 C9.57764506 125.25757253 13.17408612 125.02301914 16.78125 125.24609375 C19.3125 125.625 19.3125 125.625 21.3125 127.625 C21.5 130 21.5 130 20.3125 132.625 C16.8125 134.375 16.8125 134.375 14.39453125 135.32421875 C10.30315811 137.05099601 6.42008521 139.10578808 2.5 141.1875 C1.38818359 141.76999512 1.38818359 141.76999512 0.25390625 142.36425781 C-2.6753295 143.91808423 -5.41131328 145.41649719 -8.0625 147.41796875 C-9.6875 148.625 -9.6875 148.625 -11.875 148.375 C-13.6875 147.625 -13.6875 147.625 -14.6875 146.625 C-14.77401611 145.20929877 -14.79454904 143.789405 -14.78515625 142.37109375 C-14.78032227 141.09008789 -14.78032227 141.09008789 -14.77539062 139.78320312 C-14.76282227 138.43645508 -14.76282227 138.43645508 -14.75 137.0625 C-14.74548828 136.16080078 -14.74097656 135.25910156 -14.73632812 134.33007812 C-14.72450225 132.09498686 -14.7080222 129.86002563 -14.6875 127.625 C-18.14005971 129.60049632 -21.15090546 131.74907345 -24.1875 134.3125 C-39.93056292 146.94410211 -55.40065067 153.43307945 -75.65087891 151.85986328 C-84.43010251 150.84744263 -91.6178667 145.85214973 -97.6875 139.625 C-106.48828694 127.67028297 -108.27904942 113.64205912 -108.20392036 99.2838459 C-108.19107198 96.81466637 -108.20277132 94.34656928 -108.21995544 91.87742615 C-108.24640111 87.53188421 -108.25226016 83.18661712 -108.25085449 78.84100342 C-108.24860766 71.86379092 -108.26289083 64.88691467 -108.30644035 57.90983391 C-108.31621613 55.48849715 -108.30760135 53.06770243 -108.29774475 50.64637756 C-108.30389061 49.15560559 -108.31080289 47.6648365 -108.31860352 46.17407227 C-108.31764175 44.88171158 -108.31667999 43.58935089 -108.31568909 42.25782776 C-108.750719 38.00731043 -109.69857482 35.39039896 -111.6875 31.625 C-115.04932597 29.90499601 -118.23873526 29.54119494 -121.9375 29.125 C-125.6875 28.625 -125.6875 28.625 -127.6875 26.625 C-127.83203125 24.2421875 -127.83203125 24.2421875 -126.6875 21.625 C-124.09295014 19.91875365 -121.26059158 18.87185266 -118.375 17.75 C-111.55855294 14.93357108 -105.33209825 11.88850232 -99.0703125 7.97265625 C-96.88088679 6.73437449 -95.16968135 5.97562203 -92.6875 5.625 C-91.6875 6.625 -91.6875 6.625 -91.56280136 8.36996937 C-91.5628429 9.1351422 -91.56288445 9.90031504 -91.56292725 10.68867493 C-91.56036423 11.564608 -91.55780121 12.44054108 -91.55516052 13.34301758 C-91.55726028 14.31174805 -91.55936005 15.28047852 -91.56152344 16.27856445 C-91.5596553 17.29331345 -91.55778717 18.30806244 -91.55586243 19.3535614 C-91.55184652 21.56727659 -91.5497825 23.78099594 -91.54940033 25.99471474 C-91.54599274 30.7088023 -91.52463122 35.42275096 -91.50416946 40.13679028 C-91.46614323 48.92006816 -91.43487579 57.70320278 -91.43701172 66.48657227 C-91.43780169 72.58929862 -91.4143041 78.69152356 -91.3751297 84.79411888 C-91.36470366 87.11473521 -91.36312046 89.43540966 -91.37078094 91.75603676 C-91.67530616 110.83904068 -91.67530616 110.83904068 -83.375 127.5625 C-74.15463345 134.63859526 -66.85237314 136.76340405 -55.203125 135.31640625 C-39.88183741 132.55955036 -28.31483975 126.19432581 -19.24609375 113.3359375 C-16.19834764 108.03484527 -15.43635176 103.41437183 -15.42871094 97.33789062 C-15.4252063 96.63464157 -15.42170166 95.93139252 -15.41809082 95.20683289 C-15.40933808 92.89820278 -15.41509961 90.58988285 -15.421875 88.28125 C-15.42052649 86.66752056 -15.41858441 85.05379153 -15.41607666 83.44006348 C-15.41313415 80.06433225 -15.4173949 76.68870714 -15.42675781 73.31298828 C-15.43815185 68.99556276 -15.4315877 64.67838595 -15.41961288 60.36096954 C-15.41237068 57.03060039 -15.41469304 53.70028978 -15.41986847 50.36991882 C-15.42119844 48.77837596 -15.41958021 47.1868277 -15.41490936 45.59529114 C-15.4098052 43.36742157 -15.41760851 41.1399495 -15.42871094 38.91210938 C-15.43030212 37.64669312 -15.43189331 36.38127686 -15.43353271 35.07751465 C-15.69103212 31.57698316 -16.32485118 28.85284329 -17.6875 25.625 C-21.50297076 23.12109731 -26.12739265 23.19370601 -30.578125 22.87109375 C-32.6875 22.625 -32.6875 22.625 -33.6875 21.625 C-33.72830783 19.62541636 -33.73004356 17.62454746 -33.6875 15.625 C-33.15237793 15.39570801 -32.61725586 15.16641602 -32.06591797 14.93017578 C-26.17518585 12.36450817 -20.48457585 9.51496776 -14.8125 6.5 C-13.97203125 6.05785156 -13.1315625 5.61570312 -12.265625 5.16015625 C-1.98318721 -0.2767238 -1.98318721 -0.2767238 0 0 Z " fill="#453D3D" transform="translate(572.6875,965.375)"/>
<path d="M0 0 C6.34672469 5.44623442 10.82988619 11.35126894 14.86328125 18.64453125 C15.46076172 19.64226563 15.46076172 19.64226563 16.0703125 20.66015625 C24.16945588 35.09907853 23.78812662 54.74845796 19.8359375 70.41015625 C13.57362004 91.23424805 0.83736465 109.28564397 -18.3359375 120.19921875 C-37.0071017 129.83426862 -56.09329316 133.0196683 -76.484375 126.90234375 C-93.19965238 121.1458525 -106.50491786 110.4910997 -114.44921875 94.64453125 C-122.74304598 77.51713546 -125.19056052 58.76900079 -119.5234375 40.3359375 C-111.06837001 17.82878603 -96.45468012 1.57528141 -74.44921875 -8.66796875 C-49.52239766 -18.98566393 -21.63118875 -16.24359504 0 0 Z M-89.58984375 16.44140625 C-102.91875777 33.47770033 -104.76663998 50.5539409 -103.13671875 71.64453125 C-102.30843344 76.69556568 -100.52565812 81.12577028 -98.13671875 85.64453125 C-97.69070313 86.53527344 -97.2446875 87.42601562 -96.78515625 88.34375 C-89.73367036 101.20581784 -78.95220307 110.67095689 -65.13671875 115.64453125 C-51.55176989 119.12785147 -37.63054175 117.07581343 -25.58984375 110.1875 C-23.35128043 108.76398406 -21.24231666 107.2568887 -19.13671875 105.64453125 C-18.523125 105.19464844 -17.90953125 104.74476562 -17.27734375 104.28125 C-5.61586531 95.12234547 1.86194229 79.11702373 3.86328125 64.64453125 C5.32474579 47.33271148 2.64424691 31.08843852 -8.171875 16.9921875 C-16.57866393 7.13237332 -27.11447399 -0.3462141 -40.13671875 -2.35546875 C-59.45665642 -3.44509647 -76.41368208 1.41890346 -89.58984375 16.44140625 Z " fill="#443C3D" transform="translate(978.13671875,986.35546875)"/>
<path d="M0 0 C1 1 1 1 1.3125 3.875 C1 7 1 7 -0.5859375 8.60546875 C-4.61783071 10.93457211 -9.04655981 11.28599252 -13.58984375 12.05859375 C-17.48797672 13.13471064 -19.27437465 14.00892244 -22 17 C-25.79422249 24.46131973 -25.42964885 32.49700746 -25.40063477 40.6574707 C-25.40638696 42.12387143 -25.41347368 43.59026742 -25.42178345 45.05665588 C-25.43683371 48.20116371 -25.44267615 51.34550244 -25.44125557 54.49004555 C-25.43920788 59.48248688 -25.45888733 64.4747045 -25.48143005 69.46708679 C-25.52232574 79.18270014 -25.54096714 88.89829561 -25.55760193 98.61397552 C-25.5799744 110.93978071 -25.6139774 123.26553296 -25.66480106 135.59125394 C-25.6812918 139.73108766 -25.69340446 143.87083769 -25.69503975 148.01070595 C-25.7242728 219.87623858 -25.7242728 219.87623858 -48.0546875 243.140625 C-58.67362069 253.34387042 -72.5086412 256.99538582 -87 257.375 C-91.70192673 257.24359743 -95.12308834 256.88283175 -99 254 C-102.89881095 249.67969597 -104.36688504 247.00256775 -104.28125 241.09375 C-103.67904737 236.61068596 -100.76116881 233.82641185 -97.8125 230.625 C-93.82489517 228.32105054 -90.49998956 228.22606563 -86 229 C-81.99871552 230.96141396 -79.72684015 233.29336923 -77.0625 236.75 C-74.73221965 239.57919154 -74.30468662 239.94015084 -70.5 240.6875 C-66.49345516 239.90050012 -64.24278981 238.43209236 -61 236 C-60.01 235.67 -59.02 235.34 -58 235 C-56.91491192 233.22810558 -56.91491192 233.22810558 -56 231 C-55.54882812 230.1440625 -55.09765625 229.288125 -54.6328125 228.40625 C-44.25255924 208.39871522 -42.8460458 188.30109116 -42.85473633 166.09960938 C-42.85173645 164.54917318 -42.84833205 162.99873773 -42.84455872 161.44830322 C-42.83580804 157.27944473 -42.83338468 153.11060682 -42.83274293 148.94174004 C-42.8320284 146.33333502 -42.82988671 143.72493511 -42.82724571 141.11653137 C-42.81802856 132.00737174 -42.81390708 122.89822665 -42.81469727 113.7890625 C-42.81530012 105.3086365 -42.80469846 96.82827367 -42.7889536 88.34786367 C-42.77588536 81.04821776 -42.77051292 73.74859256 -42.77115268 66.44893503 C-42.77140746 62.09668652 -42.7685654 57.7444945 -42.75797462 53.39225769 C-42.74830337 49.30785367 -42.7482077 45.22356042 -42.75549126 41.13915253 C-42.75653765 39.64156177 -42.75417098 38.14396413 -42.7481308 36.64638519 C-42.74041739 34.60163241 -42.74625212 32.55684193 -42.75276184 30.51208496 C-42.75221707 29.36843224 -42.75167231 28.22477951 -42.75111103 27.04647064 C-43.13562672 22.33989103 -44.05001144 19.81808469 -47.64453125 16.72265625 C-51.57051848 14.70710285 -54.296841 14.50303222 -58.6875 14.4375 C-65.53582289 14.32234521 -65.53582289 14.32234521 -67.96875 12.6328125 C-69 11 -69 11 -68.8125 8.4375 C-68 6 -68 6 -66 4 C-62.98171746 3.55467963 -60.03701328 3.23867684 -57 3 C-56.05608398 2.92023926 -55.11216797 2.84047852 -54.13964844 2.75830078 C-44.85188073 2.00607078 -35.55105624 1.43406889 -26.25 0.875 C-25.5182959 0.83052734 -24.7865918 0.78605469 -24.03271484 0.74023438 C-5.2151202 -0.39076257 -5.2151202 -0.39076257 0 0 Z " fill="#443C3D" transform="translate(421,914)"/>
<path d="M0 0 C5.94 0 11.88 0 18 0 C15 2 15 2 13.09765625 3.0078125 C12.42605469 3.37648437 11.75445312 3.74515625 11.0625 4.125 C10.39347656 4.47820313 9.72445313 4.83140625 9.03515625 5.1953125 C4.98884957 8.78340019 2.83764764 13.79813667 2.49708165 19.17077859 C2.47549026 20.69025783 2.47530262 22.21014371 2.49288964 23.72967458 C2.48666078 24.57805148 2.48043192 25.42642837 2.47401431 26.30051366 C2.45800245 29.14549277 2.47043071 31.98962643 2.48270035 34.8346138 C2.47699864 36.90449458 2.46954686 38.97437115 2.4605042 41.04424003 C2.44065207 46.75987431 2.44579977 52.47525925 2.45485988 58.19091086 C2.46033607 64.41260444 2.44268129 70.63423889 2.427953 76.85591149 C2.40528919 87.79332843 2.39744687 98.73066419 2.39951229 109.66810131 C2.40166334 121.43681778 2.39514484 133.20548206 2.37809086 144.9741869 C2.37648163 146.09077521 2.37648163 146.09077521 2.37483989 147.22992086 C2.37043857 150.26360058 2.3659746 153.2972802 2.36143148 156.33095971 C2.31886258 184.75991916 2.29602225 213.1888634 2.284935 241.61785126 C2.2740332 269.48186224 2.25496796 297.3458486 2.22562408 325.2098465 C2.22377134 326.97843637 2.22191924 328.74702624 2.22006776 330.51561611 C2.21259993 337.63715024 2.20508133 344.75868432 2.19750219 351.88021834 C2.11534413 429.17981552 2.06725285 506.47941474 2.0293708 583.77904458 C2.02889851 584.7424325 2.02842621 585.70582041 2.02793961 586.6984019 C2.02555496 591.56429092 2.02317642 596.43017994 2.02080828 601.29606897 C2.00677036 630.08659202 1.99025467 658.87711272 1.97146606 687.66763306 C1.97085476 688.60476376 1.97024345 689.54189446 1.96961361 690.50742307 C1.96405876 699.01491512 1.95846795 707.52240716 1.95284581 716.02989917 C1.89072993 810.02666145 1.83313916 904.0234294 1.76278225 1233.12048238 C1.76249731 1237.89992732 1.76220459 1242.67937227 1.76191172 1247.45881721 C1.76185377 1248.40579163 1.76179582 1249.35276604 1.76173611 1250.32843665 C1.76126654 1257.98816305 1.76078916 1265.64788946 1.76030533 1273.30761586 C1.76000314 1278.09978528 1.7597072 1282.89195471 1.75942486 1287.68412413 C1.75574747 1349.75979721 1.74006077 1411.83545979 1.71766224 1473.91112877 C1.7009162 1520.33799059 1.68546176 1566.76485037 1.68092728 1613.19171524 C1.68083379 1614.14297255 1.6807403 1615.09422986 1.68064399 1616.07431315 C1.67862785 1636.92357074 1.67746934 1657.77282828 1.6771154 1678.62208596 C1.67697936 1686.06360485 1.67677049 1693.50512373 1.67652215 1700.94664262 C1.6764606 1702.79523698 1.67640227 1704.64383135 1.6763472 1706.49242571 C1.67543526 1735.68307413 1.66558113 1764.87371058 1.65088971 1794.06435505 C1.63635245 1823.05525637 1.63119186 1852.04614298 1.63930925 1881.03704731 C1.64042429 1885.02236232 1.641435 1889.00767735 1.64238358 1892.9929924 C1.64257354 1893.77384734 1.64276351 1894.55470228 1.64295924 1895.35921949 C1.64569492 1907.73123752 1.63834606 1920.10322827 1.62681021 1932.47524036 C1.61570273 1944.61016152 1.61520422 1956.74504395 1.62618039 1968.87996569 C1.63160102 1975.36438353 1.63218905 1981.84870588 1.61967167 1988.33311602 C1.60840408 1994.21741929 1.61077755 2000.10154837 1.62433875 2005.98584536 C1.6267862 2008.10661528 1.62414182 2010.22739834 1.61594227 2012.34815383 C1.60557491 2015.21637793 1.61356695 2018.08398133 1.62625384 2020.95218253 C1.61884535 2021.77559321 1.61143685 2022.59900389 1.60380385 2023.44736642 C1.66538265 2030.04181527 3.01332174 2034.70767893 7.4375 2039.8125 C9.60830718 2041.66562808 11.3773644 2042.93151883 14 2044 C14 2044.66 14 2045.32 14 2046 C15.00712925 2045.99962028 16.0142585 2045.99924056 17.05190682 2045.99884933 C98.5118646 2045.96827894 179.97182304 2045.94897306 261.4317857 2045.93814325 C264.63691461 2045.93771703 267.84204352 2045.937283 271.04717243 2045.93684149 C352.67315486 2045.92560918 434.29914377 2045.9237449 879.44723567 2046.49548677 C882.36056582 2046.5015244 885.273896 2046.50754795 888.18722618 2046.51357197 C961.45817476 2046.66510144 1034.7291005 2046.82625326 1108 2047 C1108 2047.33 1108 2047.66 1108 2048 C742.36 2048 376.72 2048 0 2048 C0 1372.16 0 696.32 0 0 Z " fill="#F8F6F8" transform="translate(0,0)"/>
<path d="M0 0 C0.33 0 0.66 0 1 0 C1.00097681 0.59827734 1.00195362 1.19655468 1.00296003 1.81296164 C1.06122836 37.26945745 1.13502234 72.72588783 1.22898628 108.18230746 C1.24025448 112.43932772 1.25139293 116.69634832 1.26245117 120.95336914 C1.26465486 121.80086756 1.26685854 122.64836599 1.269129 123.52154618 C1.30450419 137.24524334 1.32936707 150.96894044 1.35034702 164.6926663 C1.3721073 178.77382113 1.40515989 192.85491678 1.44870156 206.93602127 C1.47521436 215.62525592 1.49291246 224.31441683 1.49934604 233.00368994 C1.50460106 238.96174449 1.52082187 244.91970624 1.54566566 250.87771107 C1.55967679 254.31550086 1.56885295 257.75312454 1.56500816 261.19094467 C1.56336056 264.91965158 1.58001206 268.64784369 1.60127258 272.3764801 C1.59642501 273.46111953 1.59157743 274.54575895 1.58658296 275.66326624 C1.65631869 283.061362 2.45399898 288.06230652 7.4375 293.8125 C9.60830718 295.66562808 11.3773644 296.93151883 14 298 C14 298.66 14 299.32 14 300 C15.00712925 299.99962028 16.0142585 299.99924056 17.05190682 299.99884933 C98.5118646 299.96827894 179.97182304 299.94897306 261.4317857 299.93814325 C264.63691461 299.93771703 267.84204352 299.937283 271.04717243 299.93684149 C352.67315486 299.92560918 434.29914377 299.9237449 879.44723567 300.49548677 C882.36056582 300.5015244 885.273896 300.50754795 888.18722618 300.51357197 C961.45817476 300.66510144 1034.7291005 300.82625326 1108 301 C1108 301.33 1108 301.66 1108 302 C742.36 302 376.72 302 0 302 C0 202.34 0 102.68 0 0 Z " fill="#F0EDEE" transform="translate(0,1746)"/>
<path d="M0 0 C0.33 0 0.66 0 1 0 C1 2.31 1 4.62 1 7 C-1.31 7 -3.62 7 -6 7 C-5.02433888 5.83040013 -4.044375 4.66438823 -3.0625 3.5 C-2.51722656 2.8503125 -1.97195313 2.200625 -1.41015625 1.53125 C-0.71212891 0.77328125 -0.71212891 0.77328125 0 0 Z " fill="#EDEBEC" transform="translate(2047,2041)"/>
<path d="M0 0 C2.64 0 5.28 0 8 0 C8 1.65 8 3.3 8 5 C5.36 3.68 2.72 2.36 0 1 C0 0.67 0 0.34 0 0 Z " fill="#E7E4E5" transform="translate(2040,0)"/>
</svg>
